<svg width="490" height="490" viewBox="0 0 490 490" fill="none" xmlns="http://www.w3.org/2000/svg">
<path d="M213.91 490C186.47 486.61 160.43 478.71 136.55 467.07L155.79 427.72C175.42 437.27 196.82 443.75 219.36 446.54L213.91 490ZM269.93 43.53C292.75 46.38 314.39 53.02 334.21 62.79L353.45 23.44C329.37 11.58 303.09 3.52 275.38 0.0700002L269.93 43.53ZM156.09 62.18C175.75 52.66 197.17 46.21 219.74 43.47L214.32 0C186.89 3.35 160.86 11.19 136.97 22.77L156.09 62.18ZM333.42 427.64C313.82 437.2 292.47 443.7 269.96 446.51L275.38 489.98C302.75 486.57 328.72 478.67 352.55 467.06L333.43 427.65L333.42 427.64ZM446.54 270.64C443.75 293.18 437.27 314.58 427.72 334.21L467.07 353.45C478.71 329.57 486.6 303.53 490 276.09L446.54 270.64ZM43.53 220.07C46.38 197.25 53.02 175.61 62.79 155.79L23.44 136.55C11.58 160.63 3.52 186.91 0.0700002 214.62L43.53 220.07ZM62.18 333.91C52.66 314.25 46.21 292.83 43.47 270.26L0 275.68C3.35 303.11 11.19 329.14 22.77 353.03L62.18 333.91ZM427.64 156.58C437.2 176.18 443.7 197.53 446.51 220.04L489.98 214.62C486.57 187.25 478.67 161.28 467.06 137.45L427.65 156.57L427.64 156.58ZM100.96 400.53C97.84 392.7 90.03 396.62 90.03 396.62C90.03 396.62 93.95 388.81 86.12 385.69C78.29 382.57 70.66 395.15 73.97 412.69C91.51 416 104.08 408.37 100.96 400.54V400.53ZM92.46 81.62C89.96 80.47 87.45 80.6 84.79 81.03C82.05 81.47 79.39 81.13 76.74 80.32C75.77 80.02 74.81 79.67 73.87 79.26C73.57 79.13 73.02 78.99 72.78 78.76C73.02 79 73.15 79.55 73.28 79.85C73.68 80.79 74.04 81.74 74.34 82.72C75.15 85.37 75.49 88.02 75.05 90.77C74.62 93.42 74.49 95.94 75.64 98.44C76.48 100.27 77.98 101.98 80.06 102.3C81.23 102.48 82.42 102.19 83.47 101.67C87.87 99.5 86.2 93.29 86.2 93.29C86.2 93.29 94.07 99.21 86.85 107.08L87.54 107.77L94.67 100.64L101.8 93.51L101.11 92.82C93.24 100.04 87.32 92.17 87.32 92.17C87.32 92.17 93.52 93.84 95.7 89.44C96.22 88.39 96.51 87.2 96.33 86.03C96 83.95 94.3 82.45 92.47 81.61L92.46 81.62ZM414.99 98.41C415.77 95.81 414.64 93.48 412.54 91.88C411.86 91.36 411.05 90.99 410.2 90.99C411.65 90.73 413.07 90.16 414.16 89.17C416.12 87.39 416.11 84.38 415.1 82.1C414.88 81.61 414.5 81.15 413.97 80.61L413.95 80.59L413.93 80.57C413.39 80.03 412.93 79.65 412.44 79.44C410.16 78.43 407.16 78.43 405.37 80.38C404.38 81.47 403.8 82.89 403.55 84.34C403.55 83.49 403.17 82.68 402.66 82C401.06 79.91 398.73 78.77 396.13 79.55C394.02 80.18 392.17 81.9 391.57 84.04C390.92 86.35 391.65 89.36 393.77 90.7C396.82 92.62 402.17 91.78 402.17 91.78C402.17 91.78 395.7 98.91 388.62 92.67L387.68 93.23L394.48 100.03L394.53 100.08L401.33 106.88L401.89 105.94C395.65 98.86 402.78 92.39 402.78 92.39C402.78 92.39 401.94 97.74 403.86 100.79C405.2 102.91 408.2 103.63 410.52 102.99C412.67 102.39 414.38 100.54 415.01 98.43L414.99 98.41ZM391.21 388.91L395.38 409.77L415.77 413.47L412.07 393.08L391.21 388.91Z" fill="#AAAAAA"/>
</svg>
