<?xml version="1.0" encoding="UTF-8"?><svg id="Layer_1" xmlns="http://www.w3.org/2000/svg" viewBox="0 0 196.11 202.21"><defs><style>.cls-1{fill:#8fde5e;}.cls-1,.cls-2,.cls-3{stroke-width:0px;}.cls-2{fill:#3ca272;}.cls-3{fill:#1e1e1e;}</style></defs><rect class="cls-3" x="25.12" y="23.31" width="9.72" height="38.9"/><rect class="cls-3" x="5.67" y="81.66" width="9.72" height="68.07"/><rect class="cls-3" x="180.71" y="33.02" width="9.72" height="116.71"/><rect class="cls-3" x="34.84" y="13.59" width="29.16" height="9.72"/><rect class="cls-3" x="25.12" y="62.21" width="68.07" height="9.72"/><rect class="cls-3" x="93.19" y="71.94" width="97.24" height="9.72"/><rect class="cls-3" x="44.57" y="188.63" width="106.97" height="9.72"/><rect class="cls-3" x="44.57" y="101.11" width="48.62" height="9.72"/><rect class="cls-3" x="15.39" y="71.98" width="9.72" height="9.72"/><rect class="cls-3" x="64.02" y="140.01" width="9.72" height="9.72"/><rect class="cls-3" x="64.02" y="110.83" width="9.72" height="9.72"/><rect class="cls-3" x="15.39" y="149.73" width="9.72" height="19.45"/><rect class="cls-3" x="25.12" y="169.18" width="9.72" height="9.72"/><rect class="cls-3" x="170.98" y="149.73" width="9.72" height="19.45"/><rect class="cls-3" x="34.84" y="178.91" width="9.72" height="9.72"/><rect class="cls-3" x="151.54" y="178.91" width="9.72" height="9.72"/><rect class="cls-3" x="161.26" y="169.18" width="9.72" height="9.72"/><rect class="cls-3" x="93.19" y="81.66" width="9.72" height="19.45"/><rect class="cls-3" x="73.74" y="120.56" width="9.72" height="19.45"/><rect class="cls-3" x="112.64" y="13.59" width="29.16" height="9.72"/><rect class="cls-3" x="64.02" y="13.59" width="9.72" height="48.62"/><rect class="cls-3" x="102.92" y="13.59" width="9.72" height="58.35"/><rect class="cls-3" x="73.74" y="3.86" width="29.17" height="9.72"/><rect class="cls-3" x="151.54" y="23.31" width="29.17" height="9.72"/><rect class="cls-3" x="141.81" y="23.31" width="9.72" height="48.62"/><rect class="cls-2" x="54.29" y="91.38" width="38.9" height="9.72"/><rect class="cls-1" x="44.57" y="110.78" width="19.43" height="9.72"/><rect class="cls-2" x="64.03" y="149.73" width="9.72" height="9.72"/><rect class="cls-2" x="34.85" y="52.48" width="19.44" height="9.72"/><rect class="cls-2" x="93.19" y="13.59" width="9.72" height="58.35"/><rect class="cls-2" x="54.3" y="23.31" width="9.72" height="38.9"/><rect class="cls-2" x="151.54" y="62.21" width="19.44" height="9.72"/><rect class="cls-2" x="170.99" y="33.03" width="9.72" height="38.9"/><rect class="cls-2" x="112.64" y="62.21" width="19.44" height="9.72"/><rect class="cls-2" x="132.09" y="23.31" width="9.72" height="48.62"/><rect class="cls-2" x="73.74" y="140.01" width="9.72" height="9.72"/><rect class="cls-2" x="93.19" y="101.11" width="9.72" height="9.72"/><rect class="cls-2" x="161.26" y="101.11" width="9.72" height="9.72"/><rect class="cls-2" x="170.99" y="101.11" width="9.72" height="48.62"/><rect class="cls-2" x="161.26" y="149.73" width="9.72" height="19.45"/><rect class="cls-2" x="151.54" y="169.18" width="9.72" height="9.72"/><rect class="cls-2" x="44.57" y="178.9" width="106.96" height="9.72"/><rect class="cls-2" x="122.37" y="91.38" width="58.34" height="9.72"/><rect class="cls-2" x="102.92" y="81.66" width="77.79" height="9.72"/><rect class="cls-2" x="83.47" y="120.56" width="9.72" height="19.34"/><rect class="cls-2" x="73.74" y="110.78" width="19.45" height="9.72"/><rect class="cls-1" x="15.41" y="91.38" width="9.72" height="58.35"/><rect class="cls-1" x="25.12" y="91.38" width="9.72" height="77.8"/><rect class="cls-1" x="34.85" y="91.38" width="9.72" height="87.53"/><rect class="cls-1" x="25.12" y="71.98" width="68.07" height="9.72"/><rect class="cls-1" x="15.39" y="81.66" width="77.8" height="9.72"/><rect class="cls-1" x="44.57" y="91.38" width="9.72" height="9.72"/><rect class="cls-1" x="73.74" y="13.58" width="19.45" height="48.63"/><rect class="cls-1" x="112.64" y="23.31" width="19.44" height="38.9"/><rect class="cls-1" x="151.54" y="33.03" width="19.44" height="29.17"/><rect class="cls-1" x="34.84" y="23.31" width="19.45" height="29.17"/><rect class="cls-1" x="44.57" y="120.5" width="9.72" height="58.4"/><rect class="cls-1" x="54.3" y="120.5" width="9.72" height="58.4"/><rect class="cls-1" x="64.02" y="159.45" width="9.72" height="19.45"/><rect class="cls-1" x="64.02" y="120.56" width="9.72" height="19.42"/><rect class="cls-1" x="73.74" y="149.73" width="9.72" height="29.17"/><rect class="cls-1" x="83.47" y="140.01" width="9.72" height="38.9"/><rect class="cls-1" x="93.19" y="110.78" width="9.72" height="68.12"/><rect class="cls-1" x="102.91" y="91.38" width="9.72" height="87.52"/><rect class="cls-1" x="112.64" y="91.38" width="9.72" height="87.52"/><rect class="cls-1" x="122.36" y="101.11" width="9.72" height="77.79"/><rect class="cls-1" x="132.09" y="101.11" width="9.72" height="77.79"/><rect class="cls-1" x="141.81" y="101.11" width="9.72" height="77.79"/><rect class="cls-1" x="151.54" y="101.11" width="9.72" height="68.07"/><rect class="cls-1" x="161.26" y="110.78" width="9.72" height="38.92"/></svg>